<?xml version="1.0" standalone="no"?>
<!DOCTYPE svg PUBLIC "-//W3C//DTD SVG 20010904//EN"
 "http://www.w3.org/TR/2001/REC-SVG-20010904/DTD/svg10.dtd">
<svg version="1.0" xmlns="http://www.w3.org/2000/svg"
 width="427.000000pt" height="427.000000pt" viewBox="0 0 427.000000 427.000000"
 preserveAspectRatio="xMidYMid meet">
<metadata>
Created by potrace 1.14, written by Peter Selinger 2001-2017
</metadata>
<g transform="translate(0.000000,427.000000) scale(0.100000,-0.100000)"
fill="#000000" stroke="none">
<path d="M2092 4028 c-631 -979 -995 -2066 -1141 -3403 -27 -248 -44 -445 -39
-450 2 -3 21 19 43 47 121 162 442 529 646 738 276 283 604 549 771 625 184
84 372 24 541 -174 123 -143 278 -428 392 -721 74 -190 75 -193 79 -189 2 2
-9 72 -24 154 -16 83 -50 265 -75 405 -224 1229 -445 1910 -853 2625 -81 142
-266 435 -276 435 -2 0 -31 -42 -64 -92z m336 -1462 c79 -27 140 -52 135 -56
-4 -4 -62 -36 -128 -71 -66 -34 -121 -63 -123 -64 -1 -1 5 -64 13 -139 9 -75
15 -142 13 -147 -2 -5 -41 54 -87 132 -45 77 -86 137 -91 133 -4 -5 -46 -74
-94 -154 -94 -158 -94 -158 -71 10 25 181 35 160 -115 235 -71 36 -130 67
-130 69 0 2 64 26 143 52 78 25 143 47 144 48 0 0 26 206 57 456 31 250 60
469 63 485 4 19 29 -150 67 -455 l61 -485 143 -49z"/>
</g>
</svg>
